<?xml version="1.0" standalone="no"?>
<!DOCTYPE svg PUBLIC "-//W3C//DTD SVG 20010904//EN"
 "http://www.w3.org/TR/2001/REC-SVG-20010904/DTD/svg10.dtd">
<svg version="1.0" xmlns="http://www.w3.org/2000/svg"
 width="200.000000pt" height="200.000000pt" viewBox="0 0 200.000000 200.000000"
 preserveAspectRatio="xMidYMid meet">
<metadata>
Created by potrace 1.16, written by Peter Selinger 2001-2019
</metadata>
<g transform="translate(0.000000,200.000000) scale(0.100000,-0.100000)"
fill="#000000" stroke="none">
<path d="M848 1233 c-12 -13 -18 -36 -18 -65 0 -38 5 -50 28 -70 15 -13 31
-30 35 -38 32 -67 42 -75 99 -78 52 -3 56 -1 81 32 15 19 27 40 27 46 0 6 14
23 30 37 26 21 30 32 30 72 0 35 -5 53 -20 66 -20 18 -20 17 -20 -18 0 -39
-15 -56 -33 -38 -15 15 -160 14 -175 -1 -17 -17 -40 6 -44 44 -3 30 -3 30 -20
11z"/>
<path d="M680 1010 c0 -43 3 -50 20 -50 11 0 20 -4 20 -9 0 -12 55 -21 90 -14
25 4 30 10 30 34 0 26 2 27 35 22 42 -7 44 4 7 40 -26 25 -34 27 -115 27 l-87
0 0 -50z"/>
<path d="M1119 1024 l-34 -37 38 6 c34 5 37 4 37 -18 0 -48 7 -53 63 -43 29 5
54 14 55 19 2 5 12 9 23 9 16 0 19 7 19 50 l0 50 -83 0 c-83 0 -83 0 -118 -36z"/>
</g>
</svg>
